<?xml version="1.0" standalone="no"?><!DOCTYPE svg PUBLIC "-//W3C//DTD SVG 1.1//EN" "http://www.w3.org/Graphics/SVG/1.1/DTD/svg11.dtd"><svg t="1514857452879" class="icon" style="" viewBox="0 0 1024 1024" version="1.1" xmlns="http://www.w3.org/2000/svg" p-id="1872" xmlns:xlink="http://www.w3.org/1999/xlink" width="200" height="200"><defs><style type="text/css"></style></defs><path d="M853.7184 227.7792c-150.5824 37.504-178.1536 143.8496-168.4288 211.4176C577.8656 328.8768 582.2784 201.984 582.2784 19.2 237.7696 132.6848 317.8816 459.8464 307.568 559.1968c-86.6432-61.9712-103.0144-209.9936-103.0144-209.9936C113.0688 390.32 67.2 500.1216 67.2 589.2 67.2 804.5888 267.0624 979.2 513.6 979.2c246.5376 0 446.4-174.6112 446.4-390C960 461.1936 852.4064 402.1376 853.7184 227.7792zM530.768 919.2c-218.096 0-394.8928-160.784-394.8928-341.248 0-41.9328 1.072-75.9392 34.3392-108.7552-3.632 19.0016 47.9712 181.6416 216.496 173.1424-7.328-123.568-45.5648-426.3168 132.1216-530.9472-15.7056 164.5088 30.4032 385.5168 236.128 417.8016-11.7792-65.9808-10.3904-175.7248 42.5088-196 5.6736 101.0688 91.2384 163.424 91.2384 260.5792C888.7072 769.6608 693.9072 919.2 530.768 919.2z" p-id="1873"></path></svg>