<?xml version="1.0" standalone="no"?><!DOCTYPE svg PUBLIC "-//W3C//DTD SVG 1.1//EN" "http://www.w3.org/Graphics/SVG/1.1/DTD/svg11.dtd"><svg t="1514857501563" class="icon" style="" viewBox="0 0 1024 1024" version="1.1" xmlns="http://www.w3.org/2000/svg" p-id="3744" xmlns:xlink="http://www.w3.org/1999/xlink" width="200" height="200"><defs><style type="text/css"></style></defs><path d="M875.923 804.36L714.781 653.257c92.925-127.674 78.455-307.617-39.768-418.458-127.97-119.995-329.077-113.597-449.072 14.372C105.945 377.14 112.344 578.15 240.312 698.244c118.125 110.84 298.561 113.892 420.132 12.895l161.142 151.102c16.045 15.06 41.147 14.175 56.11-1.772 15.06-15.947 14.273-41.049-1.773-56.11zM277.03 659.163C170.619 559.348 165.303 392.3 265.119 285.89c99.815-106.41 266.962-111.726 373.275-11.91 106.41 99.815 111.726 266.962 11.91 373.274-99.716 106.411-266.863 111.727-373.274 11.911z m0 0" p-id="3745"></path><path d="M346.428 359.914c-7.973-7.973-20.869-7.973-28.842 0-27.858 27.858-43.214 64.87-43.214 104.344 0 39.375 15.356 76.486 43.214 104.245 3.937 3.938 9.155 6.005 14.372 6.005 5.217 0 10.434-1.969 14.372-6.005 7.973-7.973 7.973-20.869 0-28.842-20.18-20.18-31.303-46.955-31.303-75.502s11.123-55.322 31.303-75.501c8.072-7.974 8.072-20.869 0.098-28.744z m0 0" p-id="3746"></path></svg>