<?xml version="1.0" standalone="no"?><!DOCTYPE svg PUBLIC "-//W3C//DTD SVG 1.1//EN" "http://www.w3.org/Graphics/SVG/1.1/DTD/svg11.dtd"><svg t="1515656669394" class="icon" style="" viewBox="0 0 1024 1024" version="1.1" xmlns="http://www.w3.org/2000/svg" p-id="6501" xmlns:xlink="http://www.w3.org/1999/xlink" width="200" height="200"><defs><style type="text/css"></style></defs><path d="M948.2 386.4c0 7.7-4.55 16.1-13.65 25.15l-190.3 185.6 45.1 262.15c0.35 2.45 0.5 5.95 0.5 10.5 0 7.35-1.85 13.55-5.5 18.6-3.65 5.05-9 7.6-16 7.6-6.65 0-13.65-2.1-20.95-6.3L512 766l-235.4 123.75c-7.7 4.2-14.7 6.3-20.95 6.3-7.35 0-12.85-2.55-16.5-7.6-3.65-5.05-5.5-11.25-5.5-18.6 0-2.1 0.35-5.6 1.05-10.5l45.1-262.15-190.9-185.6c-8.75-9.45-13.1-17.8-13.1-25.15 0-12.95 9.8-20.95 29.35-24.1l263.2-38.25L486.3 85.5c6.65-14.35 15.2-21.5 25.7-21.5s19.05 7.15 25.7 21.5l117.95 238.55 263.2 38.25c19.55 3.15 29.35 11.2 29.35 24.1z" p-id="6502"></path></svg>