<?xml version="1.0" standalone="no"?><!DOCTYPE svg PUBLIC "-//W3C//DTD SVG 1.1//EN" "http://www.w3.org/Graphics/SVG/1.1/DTD/svg11.dtd"><svg t="1515656677144" class="icon" style="" viewBox="0 0 1024 1024" version="1.1" xmlns="http://www.w3.org/2000/svg" p-id="6625" xmlns:xlink="http://www.w3.org/1999/xlink" width="200" height="200"><defs><style type="text/css"></style></defs><path d="M760.27762 937.936879c-10.488889 0-21.190625-3.048429-31.822776-9.052167L511.575328 814.872029 294.497291 928.987043c-10.93505 5.937223-21.574365 8.949836-31.616068 8.949836-14.784728 0-27.366278-6.130627-35.429931-17.266245-6.566556-9.04091-9.900487-19.844977-9.900487-32.095999 0-3.321652 0.400113-7.531534 1.298576-13.639648 0.027629-0.194428 0.057305-0.388856 0.091074-0.577145l41.60763-241.85535L84.446297 461.228663c-0.302899-0.298805-0.605797-0.601704-0.8913-0.914836-12.828167-13.881149-19.063171-27.190269-19.063171-40.686654 0-11.80486 4.747117-40.013319 48.705282-47.040363 0.10847-0.017396 0.223081-0.034792 0.330528-0.053212l242.884796-35.298947L465.158159 117.331265c6.080485-13.006222 20.11513-34.4363 46.549176-34.4363 26.441209 0 40.475853 21.430078 46.549176 34.4363l108.74675 219.904409 242.877633 35.298947c0.11461 0.017396 0.230244 0.034792 0.338714 0.053212 43.963281 7.028067 48.710398 35.241642 48.710398 47.040363 0 1.818415-0.204661 3.585665-0.582261 5.284353-1.499144 12.222369-8.178263 24.335245-19.914562 36.081777-0.073678 0.068562-0.14224 0.143263-0.216941 0.211824L762.599502 632.478955l41.611723 241.878886c0.034792 0.193405 0.068562 0.393973 0.098237 0.594541 0.525979 3.615341 0.771573 7.943926 0.771573 13.622252 0 12.252045-3.333932 23.060205-9.91686 32.119535C787.105638 931.807275 774.706237 937.936879 760.27762 937.936879L760.27762 937.936879zM266.243807 882.186134c-0.704035 4.826935-0.750083 6.399757-0.750083 6.468318 0 0.234337 0.00614 0.527003 0.023536 0.846274 1.446955-0.423649 3.483334-1.217734 6.186909-2.694365 0.109494-0.063445 0.224104-0.119727 0.332575-0.177032L500.423337 766.571976c6.984065-3.670599 4.598738-9.744945 11.576663-6.079462l239.114936 126.137839c0.257873 0.132006 0.508583 0.275269 0.760317 0.418532 1.893116 1.080611 3.671623 1.886977 5.244444 2.379187 0.011256-0.315178 0.017396-0.607844 0.017396-0.853437 0-4.02057-0.170892-5.884011-0.240477-6.495948l-43.683918-253.893524c-1.338485-7.779174 1.236154-15.71696 6.885827-21.224394l184.520527-179.961698c2.338255-2.351558 3.807722-4.198625 4.728698-5.53097-1.515516-0.497327-3.63683-1.040702-6.54302-1.515516l-255.157307-37.083593c-7.800663-1.131777-14.550391-6.027274-18.043958-13.096273L515.15076 138.326439c-0.092098-0.189312-0.177032-0.3776-0.26913-0.566912-1.251503-2.711761-2.349511-4.479011-3.174296-5.598508-0.822738 1.12052-1.920746 2.892887-3.180436 5.604648-0.084934 0.189312-0.170892 0.37146-0.268106 0.560772L393.806087 369.772718c-3.494591 7.068999-10.237155 11.964496-18.037818 13.096273l-255.16447 37.083593c-3.069919 0.503467-5.266957 1.086751-6.79373 1.601474 0.8913 1.394766 2.315742 3.317559 4.551666 5.78168l184.668906 179.601494c5.661953 5.508457 8.247848 13.458523 6.909363 21.246907L266.243807 882.186134 266.243807 882.186134zM266.243807 882.186134" p-id="6626"></path></svg>