<?xml version="1.0" standalone="no"?><!DOCTYPE svg PUBLIC "-//W3C//DTD SVG 1.1//EN" "http://www.w3.org/Graphics/SVG/1.1/DTD/svg11.dtd"><svg t="1515656664477" class="icon" style="" viewBox="0 0 1024 1024" version="1.1" xmlns="http://www.w3.org/2000/svg" p-id="6377" xmlns:xlink="http://www.w3.org/1999/xlink" width="200" height="200"><defs><style type="text/css"></style></defs><path d="M957.5511 414.109506c0 7.842619-4.710278 16.461927-14.106276 25.833365L748.480434 629.744681l46.028313 268.731464c0.626263 2.505054 0.952698 6.087649 0.952698 10.799974 0 17.84032-7.366781 26.78504-22.073738 26.78504-6.916527 0-14.107299-2.205225-21.624507-6.564509l-241.019309-126.861316L269.750165 929.495626c-7.842619 4.359284-15.058974 6.564509-21.623483 6.564509-7.516184 0-13.153578-2.606361-16.913205-7.742335-3.75758-5.186116-5.637394-11.526521-5.637394-19.041682 0-2.205225 0.299829-5.788843 0.951675-10.799974l46.505173-268.731464L77.592704 439.942871c-9.096169-9.69685-13.630439-18.316158-13.630439-25.833365 0-13.154601 10.022261-21.448498 30.067806-24.90625l269.683139-38.987966L484.434689 105.914238c6.889921-14.709003 15.659655-22.074761 26.308179-22.074761s19.419282 7.365758 26.310226 22.074761l120.746038 244.300029 269.684162 38.987966C947.528839 392.661008 957.5511 400.954905 957.5511 414.109506zM674.237523 605.790106 838.683852 446.532963l-226.461755-33.376155-101.479229-205.287503 0 517.240351 202.50718 106.665345L674.237523 605.790106z" p-id="6378"></path></svg>