<?xml version="1.0" standalone="no"?><!DOCTYPE svg PUBLIC "-//W3C//DTD SVG 1.1//EN" "http://www.w3.org/Graphics/SVG/1.1/DTD/svg11.dtd"><svg t="1514857538579" class="icon" style="" viewBox="0 0 1024 1024" version="1.1" xmlns="http://www.w3.org/2000/svg" p-id="5590" xmlns:xlink="http://www.w3.org/1999/xlink" width="200" height="200"><defs><style type="text/css"></style></defs><path d="M512 24.356571C242.688 24.356571 24.356571 242.688 24.356571 512S242.688 999.643429 512 999.643429 999.643429 781.312 999.643429 512 781.312 24.356571 512 24.356571z m0 46.421334c243.663238 0 441.222095 197.558857 441.222095 441.222095 0 101.449143-34.255238 194.876952-91.843047 269.433905a372.638476 372.638476 0 0 0-200.923429-215.210667 208.993524 208.993524 0 1 0-296.911238 0 372.638476 372.638476 0 0 0-200.923429 215.210667A439.491048 439.491048 0 0 1 70.777905 512c0-243.663238 197.558857-441.222095 441.222095-441.222095zM344.81981 419.108571A167.18019 167.18019 0 1 1 512 586.288762a167.15581 167.15581 0 0 1-167.18019-167.180191zM512 953.222095a439.808 439.808 0 0 1-313.685333-130.998857 325.412571 325.412571 0 0 1 208.164571-222.671238c30.98819 18.139429 67.023238 28.550095 105.520762 28.550095s74.556952-10.410667 105.520762-28.550095a325.485714 325.485714 0 0 1 208.164571 222.671238A439.808 439.808 0 0 1 512 953.222095z" p-id="5591"></path></svg>